<!-- Generated by IcoMoon.io -->
<svg version="1.1" xmlns="http://www.w3.org/2000/svg" width="32" height="32" viewBox="0 0 32 32">
<title>check-thick-white</title>
<path fill="#fff" d="M11.393 27.517c-0.727 0-1.455-0.242-1.94-0.727l-8.971-8.971c-0.242-0.485-0.485-1.212-0.485-1.697 0-0.727 0.242-1.212 0.727-1.697 0.242-0.485 0.97-0.727 1.697-0.727 0.773-0.125 1.192 0.239 1.697 0.727l7.032 7.032 16.488-16.245c0.485-0.485 1.212-0.727 1.94-0.727s1.212 0.242 1.697 0.727c0.485 0.485 0.727 1.455 0.727 2.182s-0.485 1.212-0.97 1.697l-17.943 17.7c-0.485 0.485-0.97 0.727-1.697 0.727z"></path>
</svg>
