<?xml version="1.0" encoding="UTF-8" standalone="no"?>
<!-- Generated by IcoMoon.io -->

<svg
   xmlns:dc="http://purl.org/dc/elements/1.1/"
   xmlns:cc="http://creativecommons.org/ns#"
   xmlns:rdf="http://www.w3.org/1999/02/22-rdf-syntax-ns#"
   xmlns:svg="http://www.w3.org/2000/svg"
   xmlns="http://www.w3.org/2000/svg"
   xmlns:sodipodi="http://sodipodi.sourceforge.net/DTD/sodipodi-0.dtd"
   xmlns:inkscape="http://www.inkscape.org/namespaces/inkscape"
   version="1.1"
   width="32"
   height="32"
   viewBox="0 0 32 32"
   id="svg3051"
   inkscape:version="0.48.5 r10040"
   sodipodi:docname="check.svg">
  <metadata
     id="metadata3061">
    <rdf:RDF>
      <cc:Work
         rdf:about="">
        <dc:format>image/svg+xml</dc:format>
        <dc:type
           rdf:resource="http://purl.org/dc/dcmitype/StillImage" />
        <dc:title>check</dc:title>
      </cc:Work>
    </rdf:RDF>
  </metadata>
  <defs
     id="defs3059" />
  <sodipodi:namedview
     pagecolor="#ffffff"
     bordercolor="#666666"
     borderopacity="1"
     objecttolerance="10"
     gridtolerance="10"
     guidetolerance="10"
     inkscape:pageopacity="0"
     inkscape:pageshadow="2"
     inkscape:window-width="1187"
     inkscape:window-height="832"
     id="namedview3057"
     showgrid="false"
     inkscape:zoom="19.3125"
     inkscape:cx="16"
     inkscape:cy="16"
     inkscape:window-x="0"
     inkscape:window-y="0"
     inkscape:window-maximized="0"
     inkscape:current-layer="svg3051" />
  <title
     id="title3053">check</title>
  <path
     d="M31.733 5.733c-0.4-0.4-1.067-0.4-1.467 0l-19.333 19.333-9.2-9.2c-0.133-0.133-0.267-0.133-0.4-0.267 0 0-0.133 0-0.133 0-0.133 0-0.133 0-0.267 0 0 0 0 0 0 0-0.267 0-0.533 0.133-0.667 0.267 0 0 0 0 0 0-0.133 0.133-0.267 0.4-0.267 0.667s0.133 0.533 0.267 0.667c0 0 0 0 0 0v0c0 0 0 0 0 0l9.867 9.867c0 0 0 0 0 0s0 0 0 0c0.4 0.4 1.067 0.4 1.467 0l20-20c0.533-0.267 0.533-0.933 0.133-1.333z"
     id="path3055"
     style="fill:#ffffff" />
</svg>
